<svg xmlns="http://www.w3.org/2000/svg" width="14.568" height="16.131" viewBox="0 0 14.568 16.131">
  <g id="Picto-Info" transform="translate(0.25 0.25)">
    <path id="_Icon_Color" data-name="🔹 Icon Color" d="M1.172,15.631a1.125,1.125,0,0,1-.821-.352A1.125,1.125,0,0,1,0,14.459V2.345a1.125,1.125,0,0,1,.352-.821,1.125,1.125,0,0,1,.821-.352h1.27V0h1.27V1.172h6.643V0h1.27V1.172H12.9a1.125,1.125,0,0,1,.821.352,1.125,1.125,0,0,1,.352.821V14.459A1.2,1.2,0,0,1,12.9,15.631Zm0-1.172H12.9v-8.4H1.172Zm0-9.574H12.9V2.345H1.172Zm0,0v0Z" fill="#053a9d" stroke="#053a9d" stroke-width="0.5"/>
  </g>
</svg>
