<svg width="439" height="196" viewBox="0 0 439 196" fill="none" xmlns="http://www.w3.org/2000/svg">
<path d="M176 170.592C176 168.935 177.343 167.592 179 167.592H180.5C182.157 167.592 183.5 168.935 183.5 170.592V182.592C183.5 183.144 183.948 183.592 184.5 183.592H188C188.552 183.592 189 183.144 189 182.592V170.092C189 166.226 185.866 163.092 182 163.092H175.972C175.662 163.092 175.355 163.164 175.078 163.303L173.87 163.907C173.633 164.025 173.359 164.045 173.107 163.961L170.962 163.246C170.656 163.144 170.336 163.092 170.013 163.092H159C158.448 163.092 158 163.54 158 164.092V182.592C158 183.144 158.448 183.592 159 183.592H164V170.592C164 168.935 165.343 167.592 167 167.592H168.236C169.893 167.592 171.236 168.935 171.236 170.592V182.592C171.236 183.144 171.683 183.592 172.236 183.592H175C175.552 183.592 176 183.144 176 182.592V170.592Z" fill="black"/>
<path d="M143.5 171.092V163.592C143.5 163.316 143.276 163.092 143 163.092H140.5C138.5 163.092 138 164.758 138 165.592V171.092C138 171.368 138.224 171.592 138.5 171.592H143C143.276 171.592 143.5 171.368 143.5 171.092Z" fill="black"/>
<path d="M122.297 164.854C121.161 163.617 119.424 162.998 117.085 162.998L102.5 163.07V183.07H106.873V176.663L117.085 176.591C118.28 176.591 119.347 176.379 120.271 175.947C121.195 175.515 121.915 174.939 122.441 174.21C122.958 173.481 123.356 172.71 123.61 171.905C123.873 171.1 124 170.261 124 169.405C124 167.608 123.432 166.091 122.297 164.854ZM118.72 171.981C118.042 172.396 117.093 172.608 115.873 172.608L106.873 172.68V166.663L115.873 166.591C117.093 166.591 118.051 166.803 118.72 167.218C119.398 167.634 119.737 168.43 119.737 169.6C119.737 170.769 119.398 171.566 118.72 171.981Z" fill="black"/>
<path d="M46.9993 171.591H44.4993C43.947 171.591 43.4993 171.144 43.4993 170.591V168.591C43.4993 168.039 43.0516 167.591 42.4993 167.591H29.5C28.9477 167.591 28.5 168.039 28.5 168.591V178.092C28.5 178.644 28.9453 179.092 29.4976 179.092H40.5H42.4993C43.0516 179.092 43.4993 178.644 43.4993 178.092V175.092C43.4993 174.54 43.947 174.092 44.4993 174.092H46.9993C47.5516 174.092 47.9993 174.54 47.9993 175.092V179.092C47.9993 182.292 44.9993 183.425 43.4993 183.592H29.4993C24.6993 183.592 23.8327 180.592 23.9993 179.092V167.591C23.9993 163.591 27.666 162.925 29.4993 163.091H44.4993C47.2993 163.091 47.9993 166.091 47.9993 167.591V170.591C47.9993 171.144 47.5516 171.591 46.9993 171.591Z" fill="black"/>
<path d="M227.519 171.615H225.019C224.467 171.615 224.019 171.167 224.019 170.615V168.615C224.019 168.062 223.571 167.615 223.019 167.615H210.02C209.467 167.615 209.02 168.062 209.02 168.615V170.092C209.02 170.644 209.467 171.092 210.02 171.092H220.02C220.572 171.092 221.02 171.54 221.02 172.092V174.092C221.02 174.644 220.572 175.092 220.02 175.092H210.02C209.467 175.092 209.02 175.54 209.02 176.092V178.115C209.02 178.668 209.465 179.115 210.017 179.115H221.02H223.019C223.571 179.115 224.019 178.668 224.019 178.115V175.115C224.019 174.563 224.467 174.115 225.019 174.115H227.519C228.071 174.115 228.519 174.563 228.519 175.115V179.115C228.519 182.315 225.519 183.449 224.019 183.615H210.019C205.219 183.615 204.352 180.615 204.519 179.115V167.615C204.519 163.615 208.186 162.948 210.019 163.115H225.019C227.819 163.115 228.519 166.115 228.519 167.615V170.615C228.519 171.167 228.071 171.615 227.519 171.615Z" fill="black"/>
<path d="M63 178.092V164.092C63 163.54 63.4477 163.092 64 163.092H67.5C68.0523 163.092 68.5 163.54 68.5 164.092V177.092C68.5 177.644 68.9477 178.092 69.5 178.092H79.5C80.0523 178.092 80.5 177.644 80.5 177.092V164.092C80.5 163.54 80.9477 163.092 81.5 163.092H85.5C86.0523 163.092 86.5 163.538 86.5 164.09V178.092C86.5 181.622 84.2565 182.876 83.0693 183.081C83.0227 183.089 82.9784 183.092 82.9311 183.092H68.5C64.1 183.092 63 179.758 63 178.092Z" fill="black"/>
<path d="M241 137.881V160.088H245V140.088C245 135.595 255.9 128.276 259.616 126.838C260.131 126.638 260.574 126.14 260.574 125.588V118.116C265.433 116.136 270.458 117.291 271.884 118.116V125.946C271.884 126.337 272.105 126.689 272.461 126.851C276.529 128.706 289 134.498 289 142.092V162.092L292.5 161.299V139.8C292.5 139.334 292.393 138.872 292.175 138.461C287.876 130.358 280.766 126.114 276.622 124.564C275.772 124.246 275.161 123.46 275.161 122.552V118.116V116.42C275.255 115.667 274.54 114.162 270.926 114.162V113.032C271.961 112.844 274.307 110.443 272.5 109.087C271.151 108.076 268.283 106.873 266.641 105.936C266.038 105.592 264.975 105.605 264.384 105.97C262.876 106.902 260.333 108.088 259 109.087C257.193 110.443 259.539 112.844 260.574 113.032V114.162C256.96 114.162 256.245 115.667 256.339 116.42V118.116V122.784C256.339 123.809 255.559 124.672 254.601 125.037C249.438 127.002 241.42 134.608 241 137.881Z" fill="black"/>
<path d="M285.5 142.314V154.18C285.202 154.868 284.068 155.831 283.114 154.18V142.83C283.114 138.497 277.449 136.897 276.554 136.897C274.645 135.866 275.759 135.264 276.554 135.092C282.219 135.092 285.5 139.735 285.5 142.314Z" fill="black"/>
<path d="M270.453 144.128V125.776C270.453 125.305 270.114 124.364 268.759 124.364V119.564C268.759 119.281 268.194 118.717 265.936 118.717C263.677 118.717 263.112 119.281 263.112 119.564V124.364C261.757 124.364 261.418 125.305 261.418 125.776V144.128C261.418 144.787 261.757 146.105 263.112 146.105V151.469C263.112 151.752 263.451 152.034 265.936 152.034C268.42 152.034 268.759 151.752 268.759 151.469V146.105C270.114 146.105 270.453 144.787 270.453 144.128Z" fill="black"/>
<path d="M288.5 132.359V178.592H293.413V135.069C293.413 129.463 307.233 120.274 311.576 118.718C312.096 118.531 312.539 118.043 312.539 117.49V108.087C318.506 105.654 324.677 107.073 326.428 108.087V117.849C326.428 118.24 326.648 118.591 327.004 118.753C331.855 120.963 347.448 128.12 347.448 137.53V186.092H351.746V134.554C351.746 134.089 351.638 133.626 351.422 133.214C346.037 122.954 336.978 117.693 331.921 115.886C331.066 115.581 330.453 114.793 330.453 113.885V108.087V106.004C330.568 105.079 329.69 103.23 325.252 103.23V101.843C326.523 101.612 329.404 98.663 327.185 96.9987C325.448 95.6964 321.662 94.1356 319.709 92.9645C319.113 92.6075 318.076 92.6191 317.493 92.9965C315.691 94.164 312.326 95.7082 310.606 96.9987C308.387 98.663 311.268 101.612 312.539 101.843V103.23C308.101 103.23 307.222 105.079 307.338 106.004V108.087V114.23C307.338 115.255 306.557 116.113 305.587 116.446C299.268 118.615 289.026 128.258 288.5 132.359Z" fill="black"/>
<path d="M341.5 137.398V151.044C341.172 151.835 339.925 152.942 338.875 151.044V137.991C338.875 133.008 332.644 131.168 331.659 131.168C329.56 129.982 330.784 129.29 331.659 129.092C337.891 129.092 341.5 134.431 341.5 137.398Z" fill="black"/>
<path d="M324.672 140.031V117.493C324.672 116.915 324.256 115.759 322.591 115.759V109.864C322.591 109.518 321.898 108.824 319.124 108.824C316.35 108.824 315.656 109.518 315.656 109.864V115.759C313.992 115.759 313.576 116.915 313.576 117.493V140.031C313.576 140.84 313.992 142.459 315.656 142.459V149.047C315.656 149.394 316.073 149.74 319.124 149.74C322.175 149.74 322.591 149.394 322.591 149.047V142.459C324.256 142.459 324.672 140.84 324.672 140.031Z" fill="black"/>
<path d="M88.4751 110.69C84.9344 111.531 82.0154 116.629 82.4732 119.071H85.9724C85.9724 117.494 87.2989 114.562 90.9778 113.772C92.0577 113.54 92.966 112.676 92.966 111.571V56.0712C93.6326 50.4045 98.966 37.7712 114.966 32.5712V21.0712C116.466 20.2379 121.066 18.5712 127.466 18.5712C133.866 18.5712 137.799 19.5712 138.966 20.0712V32.5712C146.633 34.9045 161.966 42.8712 161.966 56.0712L161.966 112.568C161.966 113.121 162.416 113.562 162.966 113.616C167.398 114.051 168.959 117.358 168.959 119.068H172.459C172.917 116.626 169.998 111.529 166.457 110.687C165.919 110.559 165.466 110.121 165.466 109.568V55.0684C164.633 48.5684 158.866 34.3684 142.466 29.5684V23.0684C143.133 22.9017 144.466 22.0684 144.466 20.0684C144.633 18.735 143.366 16.0684 136.966 16.0684V14.0684C138.799 13.735 141.666 12.4684 138.466 10.0684C135.266 7.66837 132.133 3.73503 130.966 2.06837C130.299 1.23503 128.966 -0.405129 127.466 0.0920315C126.466 -0.405129 124.633 1.23789 123.966 2.07122C122.799 3.73789 119.666 7.67122 116.466 10.0712C113.266 12.4712 116.133 13.7379 117.966 14.0712V16.0712C111.566 16.0712 110.299 18.7379 110.466 20.0712C110.466 22.0712 111.799 22.9046 112.466 23.0712V29.5712C96.066 34.3712 90.2992 48.5712 89.4658 55.0712V109.571C89.4658 110.124 89.0125 110.562 88.4751 110.69Z" fill="black"/>
<path d="M98.4727 55.0918V78.0918C98.9727 79.4251 100.874 81.2918 102.474 78.0918V56.0918C102.474 47.6918 111.973 44.5918 113.474 44.5918C116.675 42.5918 114.807 41.4251 113.474 41.0918C103.974 41.0918 98.4727 50.0918 98.4727 55.0918Z" fill="black"/>
<path d="M119.473 65.5918V33.0918C119.473 32.2585 120.073 30.5918 122.473 30.5918V22.0918C122.473 21.5918 123.473 20.5918 127.473 20.5918C131.473 20.5918 132.473 21.5918 132.473 22.0918V30.5918C134.873 30.5918 135.473 32.2585 135.473 33.0918V65.5918C135.473 66.7585 134.873 69.0918 132.473 69.0918V78.5918C132.473 79.0918 131.873 79.5918 127.473 79.5918C123.073 79.5918 122.473 79.0918 122.473 78.5918V69.0918C120.073 69.0918 119.473 66.7585 119.473 65.5918Z" fill="black"/>
<path d="M131 109.592C80.6 107.992 22.6667 144.592 0 163.092C24.3333 150.258 84.6 123.892 131 121.092C177.4 118.292 223.667 147.592 241 162.592C259.167 176.758 308.1 202.792 358.5 193.592C408.9 184.392 433.167 155.758 439 142.592C434 153.758 409.8 177.392 353 182.592C281 188.592 260 155.592 219.5 132.092C187.1 113.292 147 109.258 131 109.592Z" fill="black"/>
</svg>
